<svg xmlns="http://www.w3.org/2000/svg" viewBox="0 0 128 128">
  <defs>
    <linearGradient id="grad" x1="0%" y1="0%" x2="100%" y2="100%">
      <stop offset="0%" style="stop-color:#8b5cf6;stop-opacity:1" />
      <stop offset="100%" style="stop-color:#c084fc;stop-opacity:1" />
    </linearGradient>
  </defs>
  <rect width="128" height="128" rx="40" fill="url(#grad)" />
  <g transform="translate(32, 32) scale(2.66)">
    <path d="M12 4.5a2.5 2.5 0 0 0-4.96-.46 2.5 2.5 0 0 0-1.98 3 2.5 2.5 0 0 0-1.32 4.24 3 3 0 0 0 .34 5.58 2.5 2.5 0 1 0 3.92 2.14 2.5 2.5 0 0 0 5-1c0-.2-.03-.4-.07-.59A2.5 2.5 0 0 0 12 4.5zm0 0v11M16 8V7c0-1.1-.9-2-2-2m-2 7h3c1.1 0 2 .9 2 2v1m-2-3h3" fill="none" stroke="white" stroke-width="2" stroke-linecap="round" stroke-linejoin="round"/>
    <circle cx="16" cy="19" r="1" fill="white"/>
    <circle cx="20" cy="9" r="1" fill="white"/>
    <circle cx="15" cy="5" r="1" fill="white"/>
  </g>
</svg>
